<?xml version="1.0"?><svg xmlns="http://www.w3.org/2000/svg" xmlns:xlink="http://www.w3.org/1999/xlink" viewBox="409.17 188.78 152.21 593.32"><path fill="#220E07" transform="scale(0.946408 0.946408)" d="M440.387 229.163C488.595 229.568 536.947 228.75 585.17 229.284L585.265 280.123C585.348 298.71 585.637 318.324 585.043 336.882L585.164 343.125C585.591 345.468 585.308 348.503 585.204 350.945L585.092 353.162L585.14 358.415L585.065 360.538C585.141 363.705 585.179 366.874 585.178 370.042C585.054 372.342 584.738 375.509 585.09 377.705C585.3 380.462 585.348 382.082 585.312 384.849C585.31 387.221 585.404 390.114 585.131 392.428L585.116 392.898C585.325 394.535 585.54 398.74 585.209 400.4C585.399 404.054 585.433 405.775 585.117 409.4L585.094 409.887C585.384 412.796 585.326 414.559 585.243 417.432L585.086 418.998L585.227 426.726L584.987 428.599C585.004 430.359 584.925 433.774 585.216 435.359L585.13 436.914C585.172 439.082 585.249 441.28 585.182 443.446L584.952 445.979L585.065 447.137L585.061 448.414C585.496 490.849 585.509 533.287 585.102 575.723L584.987 576.907L584.953 577.525L585.23 579.62C585.203 581.958 585.2 584.296 585.222 586.634L585.079 588.128C585.229 590.782 585.457 592.923 585.111 595.571L585.127 596.049C585.392 598.093 585.554 603.177 585.062 605.131L585.122 605.523C585.438 608.406 585.309 611.689 585.289 614.621C585.541 617.875 585.456 629.672 585.177 632.968C585.479 635.391 585.406 637.103 585.373 639.523L585.347 646.673L585.421 654.531C585.393 656.432 585.445 661.232 585.098 662.868L585.125 663.732C585.442 666.408 585.356 668.365 585.315 671.038L584.933 672.413C585.118 675.777 585.116 678.008 584.982 681.378L584.838 685.841C584.496 697.488 585.099 712.794 585.201 724.733L585.453 795.788C537.569 795.272 488.369 795.829 440.306 795.724L440.556 683.745L440.624 680.634C440.443 678.127 440.573 674.942 440.606 672.377L440.553 670.226L440.588 664.673L440.468 662.416L440.582 655.082L440.561 651.992L440.462 648.098L440.551 642.182L440.508 638.655C440.395 636.544 440.518 634.61 440.607 632.504L440.401 630.708C440.498 628.478 440.44 626.828 440.346 624.59L440.512 622.657C440.415 620.429 440.477 617.734 440.467 615.464L440.533 613.903C440.43 611.6 440.514 608.758 440.518 606.409L440.369 604.4L440.524 596.963L440.331 595.081L440.534 587.426L440.359 586.058C440.517 584.103 440.345 580.577 440.249 578.537C440.19 577.312 440.285 576.901 440.411 575.657L440.34 574.82C439.706 534.427 439.7 489.084 440.582 448.522L440.574 448L440.494 445.755L440.352 443.713C440.499 442.031 440.478 439.356 440.523 437.59L440.417 436.077L440.518 428.431L440.307 426.63L440.486 419.012L440.452 417.586L440.499 410.228L440.372 408.252C440.535 406.179 440.486 402.565 440.517 400.382L440.454 399.172L440.545 392.944L440.388 391.235L440.538 385.314L440.495 384.098C440.436 382.033 440.513 379.665 440.529 377.573L440.48 376.074L440.539 372.183L440.563 368.464C440.4 366.254 440.533 362.349 440.55 359.999L440.54 357.494L440.55 352.515L440.477 349.846L440.452 343.516L440.613 341.246C440.056 331.87 440.449 316.093 440.404 306.372L440.387 229.163Z"></path><path transform="scale(0.946408 0.946408)" d="M511.542 559.556C512.123 558.908 512.597 558.441 513.214 557.83L514.032 558.667C514.295 561.157 514.47 561.976 515.168 564.384L514.453 564.591L513.865 563.076L513.315 563.33C513.444 564.044 514.19 568.8 514.374 569.124L514.76 570.601L513.605 571.533C513.49 572.938 513.305 572.301 513.93 573.517C514.139 574.93 514.272 576.349 514.754 577.684C514.077 578.483 513.652 578.994 512.895 579.712L511.535 578.267L511.569 577.987C512.544 576.056 511.779 573.551 509.722 572.835C510.601 571.176 511.204 570.509 510.879 568.687L509.949 567.314C510.844 565.923 511.266 561.444 511.542 559.556Z"></path><path fill="#220E07" transform="scale(0.946408 0.946408)" d="M514.032 558.667L514.524 559.384C517.304 563.49 520.905 571.233 524.212 574.603C540.63 591.335 565.513 600.685 584.47 615.179C585.188 614.916 584.942 615.137 585.289 614.621C585.541 617.875 585.456 629.672 585.177 632.968C585.479 635.391 585.406 637.103 585.373 639.523L585.347 646.673L585.421 654.531C585.393 656.432 585.445 661.232 585.098 662.868L585.125 663.732C585.442 666.408 585.356 668.365 585.315 671.038L584.933 672.413C585.118 675.777 585.116 678.008 584.982 681.378L584.838 685.841C584.496 697.488 585.099 712.794 585.201 724.733L585.453 795.788C537.569 795.272 488.369 795.829 440.306 795.724L440.556 683.745L440.624 680.634C440.443 678.127 440.573 674.942 440.606 672.377L440.553 670.226L440.588 664.673L440.468 662.416L440.582 655.082L440.561 651.992L440.462 648.098L440.551 642.182L440.508 638.655C440.395 636.544 440.518 634.61 440.607 632.504L440.401 630.708C440.498 628.478 440.44 626.828 440.346 624.59L440.512 622.657C460.741 607.651 494.64 593.951 506.825 571.967C507.716 571.161 509.226 568.481 509.949 567.314L510.879 568.687C511.204 570.509 510.601 571.176 509.722 572.835C511.779 573.551 512.544 576.056 511.569 577.987L511.535 578.267L512.895 579.712C513.652 578.994 514.077 578.483 514.754 577.684C514.272 576.349 514.139 574.93 513.93 573.517C513.305 572.301 513.49 572.938 513.605 571.533L514.76 570.601L514.374 569.124C514.19 568.8 513.444 564.044 513.315 563.33L513.865 563.076L514.453 564.591L515.168 564.384C514.47 561.976 514.295 561.157 514.032 558.667Z"></path><path fill="#CE6A37" transform="scale(0.946408 0.946408)" d="M440.556 683.745C441.157 688.554 444.228 696.783 445.896 701.436C459.551 739.516 504.525 756.843 512.715 797.563C521.043 760.213 556.983 743.797 574.485 711.972C578.776 704.17 582.38 694.394 584.838 685.841C584.496 697.488 585.099 712.794 585.201 724.733L585.453 795.788C537.569 795.272 488.369 795.829 440.306 795.724L440.556 683.745Z"></path><path fill="#2D120A" transform="scale(0.946408 0.946408)" d="M509.949 567.314L510.879 568.687C511.204 570.509 510.601 571.176 509.722 572.835C511.779 573.551 512.544 576.056 511.569 577.987L511.535 578.267C507.964 585.044 505.794 592.176 499.973 597.592C495.049 602.174 489.727 606.29 484.482 610.498L461.524 628.698C454.203 634.469 448.022 638.927 441.647 645.81C440.354 646.842 440.846 646.173 440.462 648.098L440.551 642.182L440.508 638.655C440.395 636.544 440.518 634.61 440.607 632.504L440.401 630.708C440.498 628.478 440.44 626.828 440.346 624.59L440.512 622.657C460.741 607.651 494.64 593.951 506.825 571.967C507.716 571.161 509.226 568.481 509.949 567.314Z"></path><path fill="#CE6A37" transform="scale(0.946408 0.946408)" d="M509.949 567.314L510.879 568.687C511.204 570.509 510.601 571.176 509.722 572.835C506.551 578.101 503.153 584.037 499.125 588.656C486.583 603.04 468.796 613.311 452.611 623.165C449.502 625.058 443.137 629.268 440.401 630.708C440.498 628.478 440.44 626.828 440.346 624.59L440.512 622.657C460.741 607.651 494.64 593.951 506.825 571.967C507.716 571.161 509.226 568.481 509.949 567.314Z"></path><path fill="#2D120A" transform="scale(0.946408 0.946408)" d="M509.949 567.314L510.879 568.687C494.181 591.938 483.714 597.747 459.003 611.927C453.913 614.848 444.285 620.532 440.346 624.59L440.512 622.657C460.741 607.651 494.64 593.951 506.825 571.967C507.716 571.161 509.226 568.481 509.949 567.314Z"></path><defs><linearGradient id="gradient_0" gradientUnits="userSpaceOnUse" x1="470.87631" y1="602.76068" x2="477.47714" y2="613.01172"><stop offset="0" stop-color="#9B531F"></stop><stop offset="1" stop-color="#E16E38"></stop></linearGradient></defs><path fill="url(#gradient_0)" transform="scale(0.946408 0.946408)" d="M507.423 578.954L508.155 580.054C497.804 601.894 473.884 615.01 454.729 628.424C450.186 631.606 444.651 635.033 440.508 638.655C440.395 636.544 440.518 634.61 440.607 632.504C445.094 628.052 453.176 624.077 458.673 620.665C478.726 608.216 494.465 599.281 507.423 578.954Z"></path><defs><linearGradient id="gradient_1" gradientUnits="userSpaceOnUse" x1="459.80161" y1="619.12488" x2="465.95328" y2="634.27161"><stop offset="0" stop-color="#B65B25"></stop><stop offset="1" stop-color="#DB693F"></stop></linearGradient></defs><path fill="url(#gradient_1)" transform="scale(0.946408 0.946408)" d="M483.913 609.221L484.482 610.498L461.524 628.698C454.203 634.469 448.022 638.927 441.647 645.81C440.354 646.842 440.846 646.173 440.462 648.098L440.551 642.182L441.205 644.048C441.449 643.344 441.279 640.389 441.255 639.445C444.266 636.355 451.779 631.818 455.576 629.151C464.895 622.604 474.979 616.25 483.913 609.221Z"></path><path fill="#964D26" transform="scale(0.946408 0.946408)" d="M483.913 609.221C491.272 604.486 500.768 595.587 505.156 587.959C507.275 584.275 508.931 580.482 511.208 576.855L511.569 577.987L511.535 578.267C507.964 585.044 505.794 592.176 499.973 597.592C495.049 602.174 489.727 606.29 484.482 610.498L483.913 609.221Z"></path><path fill="#964D26" transform="scale(0.946408 0.946408)" d="M511.137 572.512C510.12 575.819 509.701 576.943 508.155 580.054L507.423 578.954L511.137 572.512Z"></path><path fill="#CE6A37" transform="scale(0.946408 0.946408)" d="M514.032 558.667L514.524 559.384C517.304 563.49 520.905 571.233 524.212 574.603C540.63 591.335 565.513 600.685 584.47 615.179C585.188 614.916 584.942 615.137 585.289 614.621C585.541 617.875 585.456 629.672 585.177 632.968C583.548 632.855 578.282 627.73 576.217 626.379C560.124 615.849 530.229 601.309 521.148 584.224C520.99 583.97 520.711 583.499 520.52 583.329C517.475 580.613 516.382 577.057 513.93 573.517C513.305 572.301 513.49 572.938 513.605 571.533L514.76 570.601L514.374 569.124C514.19 568.8 513.444 564.044 513.315 563.33L513.865 563.076L514.453 564.591L515.168 564.384C514.47 561.976 514.295 561.157 514.032 558.667Z"></path><path fill="#2D120A" transform="scale(0.946408 0.946408)" d="M514.374 569.124C514.19 568.8 513.444 564.044 513.315 563.33L513.865 563.076L514.453 564.591L515.168 564.384C516.497 567.015 516.973 570.115 518.341 572.3C532.035 594.19 555.789 603.196 576.444 616.919C578.305 618.155 585.045 621.933 584.707 623.815C561.144 606.447 540.61 601.701 520.772 577.734L519.612 580.113C518.21 577.951 516.056 573.169 514.76 570.601L514.374 569.124Z"></path><path fill="#B86230" transform="scale(0.946408 0.946408)" d="M514.374 569.124L514.786 568.477C516.73 570.891 518.973 574.958 520.772 577.734L519.612 580.113C518.21 577.951 516.056 573.169 514.76 570.601L514.374 569.124Z"></path><path fill="#220E07" transform="scale(0.946408 0.946408)" d="M514.76 570.601C516.056 573.169 518.21 577.951 519.612 580.113C532.876 600.362 546.536 606.959 566.612 619.398C573.864 623.891 579.434 626.524 585.177 632.968C583.548 632.855 578.282 627.73 576.217 626.379C560.124 615.849 530.229 601.309 521.148 584.224C520.99 583.97 520.711 583.499 520.52 583.329C517.475 580.613 516.382 577.057 513.93 573.517C513.305 572.301 513.49 572.938 513.605 571.533L514.76 570.601Z"></path><path fill="#CE6A37" transform="scale(0.946408 0.946408)" d="M514.026 578.986C516.241 583.961 518.503 589.351 521.73 593.703C539.757 618.013 568.677 626.988 584.436 653.799C584.734 654.305 584.677 654.198 585.094 654.615L585.421 654.531C585.393 656.432 585.445 661.232 585.098 662.868C578.506 656.151 575.552 651.455 567.188 644.436C552.328 631.966 537.447 621.879 524.314 607.522L523.812 608.604C519.922 604.318 516.862 598.917 514.007 593.884L514.617 592.305C513.701 589.308 514.024 582.531 514.026 578.986Z"></path><path fill="#562817" transform="scale(0.946408 0.946408)" d="M514.617 592.305C517.653 598.604 519.953 602.043 524.314 607.522L523.812 608.604C519.922 604.318 516.862 598.917 514.007 593.884L514.617 592.305Z"></path><path fill="#CE6A37" transform="scale(0.946408 0.946408)" d="M511.832 579.62C511.654 587.254 511.535 593.72 506.987 600.308C494.924 617.783 475.503 629.098 459.687 642.741C455.4 646.45 451.353 650.429 447.574 654.655C445.818 656.589 442.165 660.895 440.468 662.416L440.582 655.082C442.31 652.1 444.737 647.196 446.901 644.697C459.504 630.15 476.294 619.846 490.868 607.222C502.967 596.742 505.42 594.217 511.832 579.62Z"></path><path fill="#CE6A37" transform="scale(0.946408 0.946408)" d="M584.982 681.378C583.237 679.707 580.467 675.62 578.718 673.592C569.024 662.351 557.274 651.547 546.274 641.86C537.135 633.811 514.385 614.624 514.094 602.679L514.487 602.531C526.301 622.826 548.593 636.01 565.925 651.561C574.652 659.391 577.641 664.645 584.617 672.08L584.933 672.413C585.118 675.777 585.116 678.008 584.982 681.378Z"></path><path fill="#CE6A37" transform="scale(0.946408 0.946408)" d="M512.435 600.104C511.313 604.648 509.951 609.505 506.954 613.197C486.752 638.086 460.667 655.205 440.624 680.634C440.443 678.127 440.573 674.942 440.606 672.377C440.76 672.291 446.096 665.407 446.726 664.65C459.914 648.824 477.448 637.128 492.916 623.731C500.976 616.725 506.745 609.078 512.435 600.104Z"></path><path fill="#CE6A37" transform="scale(0.946408 0.946408)" d="M514.007 593.884C516.862 598.917 519.922 604.318 523.812 608.604L524.314 607.522C537.447 621.879 552.328 631.966 567.188 644.436C575.552 651.455 578.506 656.151 585.098 662.868L585.125 663.732C585.442 666.408 585.356 668.365 585.315 671.038C583.768 669.664 578.45 663.094 577.222 661.378C564.397 643.461 513.255 616.46 514.007 593.884Z"></path><path fill="#220E07" transform="scale(0.946408 0.946408)" d="M524.314 607.522C537.447 621.879 552.328 631.966 567.188 644.436C575.552 651.455 578.506 656.151 585.098 662.868L585.125 663.732L584.894 664.465L584.397 664.315C576.368 650.854 551.067 633.31 538.827 622.934C532.928 617.933 529.235 614.151 523.812 608.604L524.314 607.522Z"></path><path fill="#CE6A37" transform="scale(0.946408 0.946408)" d="M521.061 589.021C519.924 587.028 519.101 585.583 518.863 583.327L519.654 583.802L521.148 584.224C530.229 601.309 560.124 615.849 576.217 626.379C578.282 627.73 583.548 632.855 585.177 632.968C585.479 635.391 585.406 637.103 585.373 639.523L585.009 639.666L583.981 639.539C564.814 624.58 533.005 608.068 521.061 589.021Z"></path><path fill="#220E07" transform="scale(0.946408 0.946408)" d="M521.061 589.021C519.924 587.028 519.101 585.583 518.863 583.327L519.654 583.802C528.099 602.566 552.677 616.289 569.335 627.376C573.064 629.858 582.542 636.322 585.009 639.666L583.981 639.539C564.814 624.58 533.005 608.068 521.061 589.021Z"></path><path fill="#CE6A37" transform="scale(0.946408 0.946408)" d="M440.588 664.673C458.607 640.415 478.089 632.28 497.727 613.009C500.83 609.99 503.695 606.734 506.294 603.272C507.486 601.655 511.266 595.029 511.839 594.664C512.312 613.304 464.04 642.819 452.252 656.974C448.998 660.882 444.054 666.428 440.553 670.226L440.588 664.673Z"></path><path fill="#CE6A37" transform="scale(0.946408 0.946408)" d="M521.061 589.021C533.005 608.068 564.814 624.58 583.981 639.539L585.009 639.666L585.373 639.523L585.347 646.673L585.007 646.543C583.703 644.637 580.754 642.518 578.858 641.041C572.665 635.71 566.326 630.551 559.847 625.571C547.654 616.263 527.69 603.008 520.46 589.458L521.061 589.021Z"></path><path fill="#B86230" transform="scale(0.946408 0.946408)" d="M585.094 654.615C585.194 650.631 579.193 645.041 576.506 640.667L577.957 641.573L578.858 641.041C580.754 642.518 583.703 644.637 585.007 646.543L585.347 646.673L585.421 654.531L585.094 654.615Z"></path><path fill="#562817" transform="scale(0.946408 0.946408)" d="M578.858 641.041C580.754 642.518 583.703 644.637 585.007 646.543C584.864 647.17 585.034 646.97 584.641 647.244L577.957 641.573L578.858 641.041Z"></path><path fill="#964D26" transform="scale(0.946408 0.946408)" d="M513.93 573.517C516.382 577.057 517.475 580.613 520.52 583.329C520.711 583.499 520.99 583.97 521.148 584.224L519.654 583.802L518.863 583.327C519.101 585.583 519.924 587.028 521.061 589.021L520.46 589.458C517.226 585.065 517.111 581.231 514.754 577.684C514.272 576.349 514.139 574.93 513.93 573.517Z"></path><path fill="#B86230" transform="scale(0.946408 0.946408)" d="M441.647 645.81C444.094 645.203 446.073 642.123 449.301 640.062L448.679 640.775C445.475 644.482 443.251 647.941 440.561 651.992L440.462 648.098C440.846 646.173 440.354 646.842 441.647 645.81Z"></path><path fill="#CE6A37" transform="scale(0.946408 0.946408)" d="M513.28 630.238C522.211 644.129 531.687 652.403 543.615 663.335C551.257 670.34 558.562 678.268 565.907 685.603C570.2 689.891 574.757 693.983 578.608 698.679C578.819 700.404 578.282 701.011 577.587 702.798C577.418 703.095 577.583 702.884 576.773 703.51C574.492 701.783 563.764 690.987 561.243 688.494C546.764 674.175 523.846 655.007 513.449 638.387C513.517 635.687 513.374 632.941 513.28 630.238Z"></path><path fill="#CE6A37" transform="scale(0.946408 0.946408)" d="M511.754 631.864C512.843 637.94 510.811 641.57 506.859 645.908C501.684 651.586 449.918 703.558 448.163 703.741L446.388 699.417C458.48 685.101 476.148 669.798 489.293 656.177C496.171 649.05 506.66 640.276 511.754 631.864Z"></path><path fill="#CE6A37" transform="scale(0.946408 0.946408)" d="M511.774 622.368C512.029 624.223 511.993 627.456 512.036 629.435C501.543 646.324 477.129 664.268 463.777 679.63C461.633 682.096 447.72 696.637 445.897 697.779L444.282 692.93C454.769 681.823 465.509 670.956 476.493 660.34C486.917 650.205 504.379 634.327 511.774 622.368Z"></path><path fill="#CE6A37" transform="scale(0.946408 0.946408)" d="M513.453 622.357C521.458 637.125 535.132 646.764 546.888 658.295C558.049 669.241 570.257 680.771 580.54 692.593C581.259 693.42 580.166 695.848 579.853 696.856L579.376 697.2C578.551 696.774 550.063 667.839 546.59 664.765C542.798 661.409 531.854 650.715 527.294 646.472C523.653 643.084 515.753 633.358 513.682 628.312C513.333 627.463 513.436 623.581 513.453 622.357Z"></path><path fill="#CE6A37" transform="scale(0.946408 0.946408)" d="M511.788 641.152C513.072 646.073 509.565 650.873 506.378 654.393C497.771 663.897 488.382 672.896 479.324 681.997C473.088 688.293 466.807 694.546 460.483 700.754C457.595 703.605 454.703 706.912 451.683 709.482L450.896 709.308C450.016 707.558 449.796 707.167 449.306 705.3C452.352 701.56 458.261 696.055 461.925 692.432L487.348 667.254C495.574 659.212 505.316 650.474 511.788 641.152Z"></path><path fill="#CE6A37" transform="scale(0.946408 0.946408)" d="M511.33 615.436C513.601 617.937 508.906 625.407 507.047 627.489C487.016 649.915 464.318 669.721 443.95 691.929C443.826 691.366 443.091 687.695 443.262 687.472C460.261 665.238 484.522 647.122 503.316 626.34C507.234 622.006 509.98 617.968 511.33 615.436Z"></path><path fill="#CE6A37" transform="scale(0.946408 0.946408)" d="M513.531 614.578C516.536 619.16 520.077 624.695 523.705 628.727C535.913 642.295 550.695 653.994 563.666 666.918C569.491 672.723 575.774 678.77 580.656 685.402C582.603 688.046 582.222 688.425 581.746 691.179L581.333 691.268C581.508 691.371 564.312 674.062 563.486 673.017C552.099 658.599 512.651 632.716 513.531 614.578Z"></path><path fill="#CE6A37" transform="scale(0.946408 0.946408)" d="M511.631 607.397C513.032 618.319 492.008 636.542 484.222 643.939C474.683 652.874 465.234 661.904 455.875 671.027C451.233 675.622 446.182 682.896 442.6 686.163C441.881 684.747 440.916 682.794 441.945 681.222C459.307 654.695 496.609 634.656 511.631 607.397Z"></path><path fill="#CE6A37" transform="scale(0.946408 0.946408)" d="M513.717 607.906C514.138 608.302 516.794 612.424 517.344 613.209C520.268 617.383 523.282 622.032 526.943 625.601C544.292 642.515 563.729 657.43 579.559 675.956C582.565 679.475 584.375 681.857 583.921 686.295C581.346 685.569 574.067 675.982 571.637 673.411C557.731 658.696 541.628 646.196 527.758 631.488C521.961 625.341 513.464 616.853 513.717 607.906Z"></path><path fill="#CE6A37" transform="scale(0.946408 0.946408)" d="M513.248 640.013C518.862 648.83 524.723 654.663 532.024 661.885C533.27 662.738 532.975 662.311 533.686 663.499C547.655 677.521 562.432 691.323 576.675 705.19L574.474 709.699C554.37 689.302 531.224 670.278 514.404 646.948C513.066 645.092 513.311 642.435 513.248 640.013Z"></path><path fill="#562817" transform="scale(0.946408 0.946408)" d="M532.024 661.885C533.27 662.738 532.975 662.311 533.686 663.499C533.316 663.292 532.38 662.253 532.024 661.885Z"></path><path fill="#CE6A37" transform="scale(0.946408 0.946408)" d="M562.778 726.956C558.987 723.171 554.075 718.508 550.484 714.713C541.522 705.239 512.373 680.507 514.202 667.325C514.038 667.229 522.441 678.955 523.424 680.14C529.28 687.204 535.588 693.408 542.098 699.836C543.635 701.175 544.217 701.587 545.384 703.215C552.018 710.044 558.794 716.732 565.709 723.275L562.778 726.956Z"></path><path fill="#562817" transform="scale(0.946408 0.946408)" d="M542.098 699.836C543.635 701.175 544.217 701.587 545.384 703.215C544.147 702.245 543.15 701.014 542.098 699.836Z"></path><path fill="#CE6A37" transform="scale(0.946408 0.946408)" d="M512.365 659.583C512.51 671.437 483.267 697.04 474.905 706.259C471.945 709.522 461.716 720.036 458.75 722.201L457.665 719.979C457.706 719.585 457.746 719.192 457.787 718.798C469.057 706.396 486.518 688.745 497.172 677.288C502.469 671.59 507.537 665.684 512.365 659.583Z"></path><path fill="#CE6A37" transform="scale(0.946408 0.946408)" d="M509.717 669.004C511.056 669.457 510.766 669.512 512.095 669.515L512.763 669.982L512.149 670.803C509.445 674.348 506.608 679.871 503.992 682.916C490.968 698.07 476.523 712.616 462.505 726.762L459.737 723.299L480.807 701.793C490.136 692.424 503.23 680.146 509.717 669.004Z"></path><path fill="#CE6A37" transform="scale(0.946408 0.946408)" d="M516.64 663.537C527.696 679.423 540.168 690.237 553.418 704.076C555.996 706.768 566.556 716.693 567.987 719.107L567.652 720.638C567.033 721.019 566.911 721.311 566.135 721.103C562.409 720.105 529.759 685.988 525.617 681.133C521.741 676.603 518.242 671.763 515.156 666.661C515.562 665.131 515.824 664.874 516.64 663.537Z"></path><path fill="#CE6A37" transform="scale(0.946408 0.946408)" d="M511.777 649.397C512.168 649.8 511.917 649.494 512.265 650.482C509.896 660.643 481.594 684.411 473.538 694.176C471.654 696.46 455.799 713.076 453.961 714.349C453.042 712.879 452.908 712.602 452.251 710.992C455.036 707.164 462.361 700.611 466.115 696.826C473.937 688.867 481.802 680.95 489.71 673.076C497.837 664.961 504.716 658.573 511.777 649.397Z"></path><path fill="#CE6A37" transform="scale(0.946408 0.946408)" d="M514.054 654.438C515.466 655.774 519.194 660.859 520.508 662.63C524.041 667.393 526.717 670.519 530.922 674.701L557.7 701.211C561.851 705.319 566.999 710.282 570.772 714.802C571.193 715.307 570.65 716.678 570.442 717.569L569.457 717.729C561.17 712.987 513.708 662.906 514.054 654.438Z"></path><path fill="#CE6A37" transform="scale(0.946408 0.946408)" d="M513.512 648.396C515.06 649.521 517.793 652.994 519.039 654.596C534.979 675.099 555.325 691.375 573.181 710.061C573.949 710.865 573.294 712.17 573.045 713.151L571.995 713.413C571.633 713.27 570.961 713.035 570.737 712.761C559.851 699.43 515.564 663.275 513.512 648.396Z"></path><defs><linearGradient id="gradient_2" gradientUnits="userSpaceOnUse" x1="481.55762" y1="683.9397" x2="485.92963" y2="688.54688"><stop offset="0" stop-color="#B85E2B"></stop><stop offset="1" stop-color="#DC723A"></stop></linearGradient></defs><path fill="url(#gradient_2)" transform="scale(0.946408 0.946408)" d="M512.353 654.899C512.414 655.474 512.489 655.882 512.39 656.481C511.526 661.739 462.179 713.501 456.149 718.245C455.783 717.409 455.48 716.565 455.157 715.71C455.84 713.386 497.086 671.647 501.788 666.7C505.388 662.837 508.911 658.903 512.353 654.899Z"></path><path fill="#CE6A37" transform="scale(0.946408 0.946408)" d="M514.079 675.357C514.312 675.549 514.544 675.741 514.776 675.933C526.817 695.963 546.13 710.489 561.626 727.674C561.671 728.174 561.717 728.674 561.762 729.174C560.046 730.068 560.837 730.057 559.255 729.881C551.27 723.081 520.695 691.762 515.977 683.415C514.689 681.136 514.482 677.924 514.079 675.357Z"></path><path fill="#CE6A37" transform="scale(0.946408 0.946408)" d="M511.808 707.368C517.75 714.055 485.858 747.573 482.364 747.581C480.822 746.062 480.456 746.179 479.919 744.391C491.898 730.039 500.215 726.245 511.808 707.368Z"></path><path fill="#CE6A37" transform="scale(0.946408 0.946408)" d="M513.883 702.189C514.428 702.712 517.239 706.824 517.901 707.722C520.6 711.442 523.426 715.068 526.373 718.595C532.932 726.415 541.258 733.963 548.635 741.182C549.023 742.456 548.67 742.392 547.839 744.018L546.853 744.302C543.718 743.821 524.418 723.757 521.712 719.927C516.044 711.902 512.858 711.724 513.883 702.189Z"></path><path fill="#CE6A37" transform="scale(0.946408 0.946408)" d="M513.551 710.807C514.124 711.248 520.921 720.226 521.25 720.955C523.525 726.008 544.202 742.988 545.053 745.971L544.068 747.48C543.133 748.127 543.065 748.142 542 748.559C535.037 746.509 517.983 724.133 513.558 717.428C513.443 715.314 513.526 712.944 513.551 710.807Z"></path><defs><linearGradient id="gradient_3" gradientUnits="userSpaceOnUse" x1="484.88696" y1="698.0155" x2="491.1405" y2="704.95978"><stop offset="0" stop-color="#A9592A"></stop><stop offset="1" stop-color="#D96A33"></stop></linearGradient></defs><path fill="url(#gradient_3)" transform="scale(0.946408 0.946408)" d="M512.823 672.377C512.882 673.971 512.76 673.765 512.402 675.318C511.698 678.376 507.838 683.34 506.142 685.68C501.063 692.686 469.283 727.7 464.742 730.122C463.912 728.786 463.799 728.822 463.608 727.299C475.976 713.436 490.504 700.959 502.191 686.318C505.893 681.679 509.202 676.981 512.823 672.377Z"></path><path fill="#CE6A37" transform="scale(0.946408 0.946408)" d="M514.13 695.265C515.09 696.03 521.816 706.125 523.741 708.378C530.019 715.663 536.666 722.622 543.657 729.226C545.041 730.546 552.105 736.802 552.627 737.857L552.018 739.368L550.148 740.667C547.628 739.564 532.362 723.643 529.303 720.207C525.232 715.635 516.6 705.691 514.113 699.895C513.914 699.431 514.082 696.155 514.13 695.265Z"></path><defs><linearGradient id="gradient_4" gradientUnits="userSpaceOnUse" x1="537.66583" y1="706.2019" x2="533.58472" y2="710.56476"><stop offset="0" stop-color="#B95E27"></stop><stop offset="1" stop-color="#DA7039"></stop></linearGradient></defs><path fill="url(#gradient_4)" transform="scale(0.946408 0.946408)" d="M514.101 682.181C515.333 688.384 551.455 723.468 557.368 729.846C558.735 731.321 558.514 731.482 558.379 733.158L557.201 733.453C555.85 733.078 553.634 731.021 552.682 729.985C543.74 720.246 514.333 694.896 514.101 682.181Z"></path><path fill="#CE6A37" transform="scale(0.946408 0.946408)" d="M512.318 683.499L512.631 683.687C512.606 683.883 512.58 684.079 512.555 684.276C506.6 700.93 493.729 713.754 481.927 726.379C478.522 730.023 474.608 734.81 471.321 737.254C470.276 736.088 470.016 735.987 469.578 734.47C471.346 731.613 488.69 714.279 492.355 710.087C500.649 700.599 505.225 694.185 512.318 683.499Z"></path><path fill="#CE6A37" transform="scale(0.946408 0.946408)" d="M512.289 678.925L512.725 679.451C504.509 696.901 489.63 711.326 476.599 725.258C475.136 726.822 469.674 732.959 468.056 733.547C467.047 732.433 466.705 732.244 466.236 730.815C471.771 724.478 479.124 717.769 485.043 711.53C494.844 701.283 503.946 690.39 512.289 678.925Z"></path><path fill="#CE6A37" transform="scale(0.946408 0.946408)" d="M511.806 700.904L512.253 701.425C513.02 709.231 482.211 742.67 478.034 743.663L476.334 741.709C476.625 739.991 483.036 733.373 484.788 731.856C495.374 722.688 502.54 711.048 511.806 700.904Z"></path><path fill="#CE6A37" transform="scale(0.946408 0.946408)" d="M514.085 688.869C517.839 692.528 523.402 701.749 528.057 706.618C536.566 715.521 545.077 724.138 553.998 732.646C555.672 734.242 555.66 734.311 555.605 736.025L554.138 736.658C552.818 736.244 550.254 734.036 549.274 733.049C540.076 723.781 514.738 701.36 514.085 688.869Z"></path><path fill="#CE6A37" transform="scale(0.946408 0.946408)" d="M502.183 705.54C503.383 704.472 505.004 702.745 506.447 702.446C506.876 704.086 506.225 704.653 506.348 705.253C504.144 709.239 478.961 738.071 475.368 739.763C473.638 739.689 474.329 740.013 473.164 738.904C473.562 735.92 498.093 710.444 502.183 705.54Z"></path><path fill="#CE6A37" transform="scale(0.946408 0.946408)" d="M507.157 723.934C507.743 722.305 510.314 717.161 511.784 716.313C512.481 717.542 511.905 718.772 511.619 720.573C511.868 725.216 490.349 750.393 486.282 751.166C484.878 749.964 484.739 750.259 484.388 748.79C485.638 746.204 495.091 738.346 497.419 735.196C497.613 734.934 508.134 723.319 507.157 723.934Z"></path><path fill="#B86230" transform="scale(0.946408 0.946408)" d="M507.157 723.934C507.743 722.305 510.314 717.161 511.784 716.313C512.481 717.542 511.905 718.772 511.619 720.573C509.837 721.587 508.306 723.472 507.157 723.934Z"></path><path fill="#B86230" transform="scale(0.946408 0.946408)" d="M502.67 741.268C500.442 743.889 491.452 753.674 488.288 753.723L487.575 753.016C487.963 751.341 494.17 745.773 495.779 744.161C499.017 740.931 502.037 737.488 504.817 733.856C505.991 732.341 510.979 724.989 511.657 724.457L512.163 725.36C513.105 727.366 513.187 726.745 512.752 728.469L512.235 728.877C511.419 731.837 509.009 734.635 507.416 737.407C509.132 736.379 512.27 731.925 513.571 730.139C512.185 733.519 511.082 736.384 508.538 739.126C507.909 738.67 507.108 738.307 506.412 737.946C505.189 739.709 504.604 740.564 503.162 742.124L502.67 741.268Z"></path><path fill="#562817" transform="scale(0.946408 0.946408)" d="M502.67 741.268C504.409 738.186 510.354 727.709 512.163 725.36C513.105 727.366 513.187 726.745 512.752 728.469L512.235 728.877C511.419 731.837 509.009 734.635 507.416 737.407C509.132 736.379 512.27 731.925 513.571 730.139C512.185 733.519 511.082 736.384 508.538 739.126C507.909 738.67 507.108 738.307 506.412 737.946C505.189 739.709 504.604 740.564 503.162 742.124L502.67 741.268Z"></path><path fill="#B86230" transform="scale(0.946408 0.946408)" d="M506.412 737.946L506.317 737.546C506.834 735.466 510.643 730.485 512.235 728.877C511.419 731.837 509.009 734.635 507.416 737.407C509.132 736.379 512.27 731.925 513.571 730.139C512.185 733.519 511.082 736.384 508.538 739.126C507.909 738.67 507.108 738.307 506.412 737.946Z"></path><path fill="#B86230" transform="scale(0.946408 0.946408)" d="M509.163 746.062C510.15 744.515 511.181 742.997 512.256 741.509L512.816 741.452L512.905 743.09C513.678 748.27 502.834 765.658 498.94 766.534L498.355 765.8C498.7 763.206 506.295 756.067 508.604 751.827L508.228 751.46C505.163 754.697 500.811 761.87 497.193 763.845C495.841 763.114 496.462 763.569 495.615 761.898C496.044 760.278 506.85 749.052 509.163 746.062Z"></path><path fill="#964D26" transform="scale(0.946408 0.946408)" d="M509.163 746.062C510.15 744.515 511.181 742.997 512.256 741.509L512.816 741.452L512.905 743.09C511.484 745.053 511.474 745.219 509.163 746.062Z"></path><path fill="#CE6A37" transform="scale(0.946408 0.946408)" d="M513.463 719.797C516.53 721.633 529.825 742.083 535.098 745.222C537.022 746.367 540.655 749.245 540.694 751.335C539.724 751.909 539.603 751.909 538.511 752.237C531.984 749.335 514.821 727.199 513.463 719.797Z"></path><path fill="#CE6A37" transform="scale(0.946408 0.946408)" d="M512.531 723.301C517.969 730.494 522.513 737.916 528.646 744.674C530.52 746.739 536.614 752.462 536.98 754.261C535.817 755.745 536.528 755.326 534.979 755.85C530.802 751.883 525.602 746.814 521.886 742.516C522.63 741.925 522.305 742.305 522.781 741.314C518.074 734.559 515.571 730.8 512.531 723.301Z"></path><defs><linearGradient id="gradient_5" gradientUnits="userSpaceOnUse" x1="499.909" y1="743.97137" x2="504.97739" y2="753.31915"><stop offset="0" stop-color="#B1572C"></stop><stop offset="1" stop-color="#DB7434"></stop></linearGradient></defs><path fill="url(#gradient_5)" transform="scale(0.946408 0.946408)" d="M512.621 735.463C513.577 740.594 497.827 759.439 493.681 760.628C493.242 759.748 493.123 759.383 492.785 758.46C493.696 756.904 500.854 749.736 502.579 747.81C506.349 743.602 509.216 739.959 512.621 735.463Z"></path><path fill="#CE6A37" transform="scale(0.946408 0.946408)" d="M514.044 735.904C517.977 738.635 525.104 748.883 529.605 752.287C531.742 753.903 534.044 756.276 533.657 758.986C528.987 759.699 514.995 740.99 514.044 735.904Z"></path><path fill="#CE6A37" transform="scale(0.946408 0.946408)" d="M514.01 740.825C516.649 742.94 526.617 756.15 529.87 759.157C531.099 760.292 530.83 761.191 530.666 762.449L529.239 762.784C528.316 762.254 526.639 760.767 525.991 759.888C522.116 754.634 513.789 747.482 514.01 740.825Z"></path><path fill="#B86230" transform="scale(0.946408 0.946408)" d="M502.183 705.54C504.753 701.837 510.967 689.306 512.895 687.462C513.267 688.808 512.512 690.869 512.124 692.336L513.353 693.252L512.946 693.824C512.736 698.878 510.46 702.265 506.348 705.253C506.225 704.653 506.876 704.086 506.447 702.446C505.004 702.745 503.383 704.472 502.183 705.54Z"></path><path fill="#562817" transform="scale(0.946408 0.946408)" d="M512.946 693.824C511.556 696.324 509.427 699.051 507.717 701.4C507.982 699.869 511.23 694.028 512.124 692.336L513.353 693.252L512.946 693.824Z"></path><path fill="#B86230" transform="scale(0.946408 0.946408)" d="M506.412 737.946C507.108 738.307 507.909 738.67 508.538 739.126C505.618 742.857 495.347 755.01 491.916 756.899L490.923 756.782L490.141 755.725C490.604 754.365 501.379 744.102 503.162 742.124C504.604 740.564 505.189 739.709 506.412 737.946Z"></path><path fill="#CE6A37" transform="scale(0.946408 0.946408)" d="M513.921 746.417C517.393 749.922 524.108 759.336 527.555 763.45C528.32 764.362 527.829 764.972 527.482 765.965C524.519 765.089 517.987 755.583 516.023 752.771C514.419 750.475 513.377 749.133 513.921 746.417Z"></path><path fill="#CE6A37" transform="scale(0.946408 0.946408)" d="M513.283 751.325C514.699 752.428 525.785 766.32 526.122 768.144L524.709 768.184C520.447 764.968 514.354 756.655 513.283 751.325Z"></path><path fill="#B86230" transform="scale(0.946408 0.946408)" d="M511.801 751.367C512.358 755.941 504.301 767.41 500.674 769.739C500.578 769.467 500.448 769.204 500.385 768.922C500.089 767.601 510.381 753.894 511.801 751.367Z"></path><path fill="#CE6A37" transform="scale(0.946408 0.946408)" d="M513.512 756.821C515.877 758.205 521.596 766.979 523.84 769.534C523.834 770.083 523.828 770.633 523.823 771.182C520.386 771.604 514.026 760.172 513.512 756.821Z"></path><path fill="#B86230" transform="scale(0.946408 0.946408)" d="M511.428 757.457C513.474 759.791 504.287 771.096 502.905 772.856L502.328 771.46C502.688 768.487 508.898 761.56 511.065 758.054L511.428 757.457Z"></path><path fill="#964D26" transform="scale(0.946408 0.946408)" d="M511.732 761.367C512.371 766.991 508.501 771.491 504.437 775.014C503.102 770.941 510.636 766.579 511.732 761.367Z"></path><path fill="#CE6A37" transform="scale(0.946408 0.946408)" d="M513.435 761.993C515.78 764.612 521.648 770.641 522.105 773.86L521.121 773.793C517.431 771.633 514.663 766.003 513.435 761.993Z"></path><path fill="#B86230" transform="scale(0.946408 0.946408)" d="M511.194 768.38C512.831 770.017 509.058 777.129 507.487 778.638L506.888 778.434C506.884 776.812 507.277 777.005 508.806 775.399L508.968 774.593L508.634 774.248C507.549 775.443 506.954 776.612 505.747 776.749C505.851 774.829 509.821 770.179 511.194 768.38Z"></path><path fill="#B86230" transform="scale(0.946408 0.946408)" d="M512.474 729.046C515.93 732.218 519.901 739.976 522.781 741.314C522.305 742.305 522.63 741.925 521.886 742.516C517.194 738.543 515.151 734.44 512.474 729.046Z"></path><path fill="#B86230" transform="scale(0.946408 0.946408)" d="M514.011 767.483C517 770.523 519.876 773.102 520.076 777.135C517.138 775.876 514.416 770.532 514.011 767.483Z"></path><path fill="#B86230" transform="scale(0.946408 0.946408)" d="M513.515 771.479C515.643 773.877 518.545 776.513 518.464 779.666L517.322 779.459C515.363 777.01 514.481 774.44 513.515 771.479Z"></path><path fill="#964D26" transform="scale(0.946408 0.946408)" d="M512.288 777.891C512.404 780.04 511.181 782.767 511.033 784.024C510.869 785.425 512.854 787.416 512.722 790.119C511.002 787.925 510.682 786.032 509.863 783.348C510.689 781.142 511.198 779.978 512.288 777.891Z"></path><path fill="#CE6A37" transform="scale(0.946408 0.946408)" d="M515.156 666.661C514.403 664.895 513.753 662.865 514.362 660.985C515.634 661.267 515.665 662.012 516.64 663.537C515.824 664.874 515.562 665.131 515.156 666.661Z"></path><path fill="#B86230" transform="scale(0.946408 0.946408)" d="M511.832 773.882C512.063 776.209 509.755 780.27 508.652 782.464C507.424 779.568 510.236 776.527 511.832 773.882Z"></path><path fill="#964D26" transform="scale(0.946408 0.946408)" d="M509.717 669.004C510.558 667.439 511.068 665.993 512.423 665.02C512.991 666.993 512.254 667.702 512.095 669.515C510.766 669.512 511.056 669.457 509.717 669.004Z"></path><path fill="#B86230" transform="scale(0.946408 0.946408)" d="M513.292 781.122L513.716 781.061C514.804 782.479 515.713 783.343 515.999 785.085C514.103 785.083 513.317 782.719 513.292 781.122Z"></path><path fill="#964D26" transform="scale(0.946408 0.946408)" d="M512.043 782.957C513.258 783.892 513.714 785.316 514.389 786.75C513.756 786.757 514.165 786.787 513.191 786.47C512.131 784.842 512.233 784.816 512.043 782.957Z"></path><path fill="#CE6A37" transform="scale(0.946408 0.946408)" d="M440.494 445.755C445.368 448.043 449.745 451.45 454.569 453.897C474.991 464.26 504.787 475.458 510.893 500.122C511.788 499.206 511.725 499.125 512.29 497.954C513.21 498.639 512.827 498.397 513.813 498.962L514.502 499.349C515.961 493.972 516.954 492.621 519.838 487.926C535.821 468.77 551.286 463.955 572.772 453.006C576.261 451.227 581.493 446.5 584.952 445.979L585.065 447.137L585.061 448.414C585.496 490.849 585.509 533.287 585.102 575.723L584.987 576.907L584.953 577.525L585.23 579.62C585.203 581.958 585.2 584.296 585.222 586.634L585.079 588.128C585.229 590.782 585.457 592.923 585.111 595.571L585.127 596.049C585.392 598.093 585.554 603.177 585.062 605.131L585.122 605.523C585.438 608.406 585.309 611.689 585.289 614.621C584.942 615.137 585.188 614.916 584.47 615.179C565.513 600.685 540.63 591.335 524.212 574.603C520.905 571.233 517.304 563.49 514.524 559.384L514.032 558.667L513.214 557.83C512.597 558.441 512.123 558.908 511.542 559.556C511.266 561.444 510.844 565.923 509.949 567.314C509.226 568.481 507.716 571.161 506.825 571.967C494.64 593.951 460.741 607.651 440.512 622.657C440.415 620.429 440.477 617.734 440.467 615.464L440.533 613.903C440.43 611.6 440.514 608.758 440.518 606.409L440.369 604.4L440.524 596.963L440.331 595.081L440.534 587.426L440.359 586.058C440.517 584.103 440.345 580.577 440.249 578.537C440.19 577.312 440.285 576.901 440.411 575.657L440.34 574.82C439.706 534.427 439.7 489.084 440.582 448.522L440.574 448L440.494 445.755Z"></path><path fill="#2D120A" transform="scale(0.946408 0.946408)" d="M515.052 518.859C525.547 545.858 548.116 553.652 571.675 566.397C575.394 568.41 581.17 573.18 585.102 575.723L584.987 576.907L584.953 577.525L585.23 579.62C585.203 581.958 585.2 584.296 585.222 586.634L585.079 588.128C585.229 590.782 585.457 592.923 585.111 595.571L585.127 596.049C585.392 598.093 585.554 603.177 585.062 605.131L585.122 605.523C585.438 608.406 585.309 611.689 585.289 614.621C584.942 615.137 585.188 614.916 584.47 615.179C565.513 600.685 540.63 591.335 524.212 574.603C520.905 571.233 517.304 563.49 514.524 559.384L514.032 558.667L513.214 557.83C512.597 558.441 512.123 558.908 511.542 559.556C511.266 561.444 510.844 565.923 509.949 567.314C509.226 568.481 507.716 571.161 506.825 571.967C494.64 593.951 460.741 607.651 440.512 622.657C440.415 620.429 440.477 617.734 440.467 615.464L440.533 613.903C440.43 611.6 440.514 608.758 440.518 606.409L440.369 604.4L440.524 596.963L440.331 595.081L440.534 587.426L440.359 586.058C440.517 584.103 440.345 580.577 440.249 578.537C440.19 577.312 440.285 576.901 440.411 575.657C441.609 575.465 450.872 568.927 453.168 567.762C472.842 557.777 495.139 548.636 506.803 528.685C508.133 526.41 509.088 523.929 510.667 521.815L511.133 522.279C512.161 523.439 511.751 523.725 512.341 525.107L512.498 524.866L512.773 525.003C513.544 522.959 514.304 520.911 515.052 518.859Z"></path><path fill="#CE6A37" transform="scale(0.946408 0.946408)" d="M514.07 533.512C516.482 538.383 518.358 542.437 521.871 546.588L522.265 545.401C535.246 560.362 547.22 565.986 564.657 574.665C571.571 578.107 579.165 581.778 585.222 586.634L585.079 588.128C585.229 590.782 585.457 592.923 585.111 595.571C580.225 591.641 574.338 588.264 568.743 585.441C548.402 575.174 515.331 559.773 514.07 533.512Z"></path><path fill="#220E07" transform="scale(0.946408 0.946408)" d="M522.265 545.401C535.246 560.362 547.22 565.986 564.657 574.665C571.571 578.107 579.165 581.778 585.222 586.634L585.079 588.128C580.511 583.724 572.573 579.793 566.826 576.952C549.703 568.484 534.331 561.682 521.871 546.588L522.265 545.401Z"></path><path fill="#CE6A37" transform="scale(0.946408 0.946408)" d="M585.289 614.621C568.254 600.927 547.115 592.591 530.162 578.832C524.572 574.295 512.176 558.202 514.222 551.285C515.746 552.495 518.515 557.713 519.824 559.791C532.726 580.268 558.256 587.527 577.329 600.844C579.882 602.627 581.789 604.382 584.215 606.131L585.122 605.523C585.438 608.406 585.309 611.689 585.289 614.621Z"></path><path fill="#CE6A37" transform="scale(0.946408 0.946408)" d="M440.518 606.409C445.477 600.579 469.48 588.544 477.283 584.055C481.754 581.474 486.046 578.594 490.13 575.436C495.063 571.644 501.956 565.589 505.542 560.485C507.475 557.732 508.316 554.659 510.868 551.938L511.363 552.121C510.255 578.251 459.402 599.821 440.533 613.903C440.43 611.6 440.514 608.758 440.518 606.409Z"></path><path fill="#CE6A37" transform="scale(0.946408 0.946408)" d="M585.062 605.131C583.433 604.291 580.585 601.965 578.904 600.746C555.771 583.972 522.137 576.023 513.925 544.891C513.734 544.167 514.055 544.111 514.505 543.7C515.732 544.865 517.958 548.864 518.923 550.507C532.711 574.005 561.196 579.512 581.304 594.212L584.515 596.55L585.127 596.049C585.392 598.093 585.554 603.177 585.062 605.131Z"></path><path fill="#CE6A37" transform="scale(0.946408 0.946408)" d="M511.268 534.321C512.475 558.526 470.47 578.815 451.894 587.83C448.034 589.704 444.122 593.363 440.331 595.081L440.534 587.426C467.425 570.489 496.605 564.697 511.268 534.321Z"></path><path fill="#CE6A37" transform="scale(0.946408 0.946408)" d="M440.524 596.963C455.037 584.733 477.095 579.202 494.892 563.706C497.935 561.041 500.758 558.134 503.332 555.014C504.546 553.543 510.092 545.418 510.893 545.205C511.439 546.953 509.285 552.164 508.379 553.769C494.65 578.075 463.298 588.839 440.369 604.4L440.524 596.963Z"></path><path fill="#CE6A37" transform="scale(0.946408 0.946408)" d="M504.326 570.415L505.251 570.473L506.762 568.459L507.297 569.412C506.923 570.605 506.712 570.738 506.825 571.967C494.64 593.951 460.741 607.651 440.512 622.657C440.415 620.429 440.477 617.734 440.467 615.464C455.268 603.632 474.004 596.236 489.122 584.556C494.91 580.084 499.274 575.628 504.326 570.415Z"></path><path fill="#CE6A37" transform="scale(0.946408 0.946408)" d="M440.249 578.537C441.953 578.849 448.398 574.568 450.487 573.416C458.921 568.764 467.917 564.965 476.34 560.347C480.405 558.129 484.364 555.72 488.202 553.127C498.521 546.048 505.148 539.696 510.332 528.288L510.767 528.277C510.826 537.257 503.491 545.761 497.507 551.856C485.305 564.285 467.168 571.254 451.91 579.346C448.235 581.295 443.484 584.501 440.359 586.058C440.517 584.103 440.345 580.577 440.249 578.537Z"></path><path fill="#CE6A37" transform="scale(0.946408 0.946408)" d="M525.7 544.992C523.578 542.929 522.66 542.114 520.974 539.592L521.343 538.841C540.532 560.865 561.697 564.192 585.23 579.62C585.203 581.958 585.2 584.296 585.222 586.634C579.165 581.778 571.571 578.107 564.657 574.665C547.22 565.986 535.246 560.362 522.265 545.401C520.556 542.975 519.47 541.501 518.123 538.807C519.813 539.842 523.494 545.42 525.861 547.662L526.259 547.523L525.7 544.992Z"></path><defs><linearGradient id="gradient_6" gradientUnits="userSpaceOnUse" x1="475.14215" y1="548.57452" x2="480.63681" y2="556.10352"><stop offset="0" stop-color="#A85429"></stop><stop offset="1" stop-color="#DA6D38"></stop></linearGradient></defs><path fill="url(#gradient_6)" transform="scale(0.946408 0.946408)" d="M440.411 575.657C441.609 575.465 450.872 568.927 453.168 567.762C472.842 557.777 495.139 548.636 506.803 528.685C508.133 526.41 509.088 523.929 510.667 521.815L511.133 522.279C505.096 541.611 492.862 549.772 475.504 559.576C466.998 564.38 446.856 572.514 440.249 578.537C440.19 577.312 440.285 576.901 440.411 575.657Z"></path><defs><linearGradient id="gradient_7" gradientUnits="userSpaceOnUse" x1="551.41235" y1="547.14484" x2="545.39709" y2="556.47833"><stop offset="0" stop-color="#A85223"></stop><stop offset="1" stop-color="#CF6231"></stop></linearGradient></defs><path fill="url(#gradient_7)" transform="scale(0.946408 0.946408)" d="M584.953 577.525C583.211 576.985 572.969 571.233 570.74 570.039C553.851 560.987 535.061 554.142 522.751 538.739C519.612 534.811 514.173 527.559 514.64 522.303C515.405 522.865 517.254 526.89 517.85 527.964C528.752 547.614 549.62 556.205 568.51 566.088C574.426 569.183 579.651 573.02 584.987 576.907L584.953 577.525Z"></path><defs><linearGradient id="gradient_8" gradientUnits="userSpaceOnUse" x1="522.17596" y1="536.71887" x2="518.55298" y2="540.06934"><stop offset="0" stop-color="#96482A"></stop><stop offset="1" stop-color="#E97238"></stop></linearGradient></defs><path fill="url(#gradient_8)" transform="scale(0.946408 0.946408)" d="M518.123 538.807C516.034 536.722 514.333 529.199 513.641 526.275C516.404 530.803 518.166 534.337 521.343 538.841L520.974 539.592C522.66 542.114 523.578 542.929 525.7 544.992L526.259 547.523L525.861 547.662C523.494 545.42 519.813 539.842 518.123 538.807Z"></path><path fill="#B86230" transform="scale(0.946408 0.946408)" d="M504.326 570.415C504.697 569.291 510.507 560.928 511.542 559.556C511.266 561.444 510.844 565.923 509.949 567.314C509.226 568.481 507.716 571.161 506.825 571.967C506.712 570.738 506.923 570.605 507.297 569.412L506.762 568.459L505.251 570.473L504.326 570.415Z"></path><path fill="#CE6A37" transform="scale(0.946408 0.946408)" d="M585.061 448.414C585.496 490.849 585.509 533.287 585.102 575.723C581.17 573.18 575.394 568.41 571.675 566.397C548.116 553.652 525.547 545.858 515.052 518.859C513.084 510.947 513.341 509.831 516.031 502.054C529.82 471.598 560.653 467.591 585.061 448.414Z"></path><path fill="#220E07" transform="scale(0.946408 0.946408)" d="M440.494 445.755C445.368 448.043 449.745 451.45 454.569 453.897C474.991 464.26 504.787 475.458 510.893 500.122C511.788 499.206 511.725 499.125 512.29 497.954C513.21 498.639 512.827 498.397 513.813 498.962L514.502 499.349C515.961 493.972 516.954 492.621 519.838 487.926C535.821 468.77 551.286 463.955 572.772 453.006C576.261 451.227 581.493 446.5 584.952 445.979L585.065 447.137L585.061 448.414C560.653 467.591 529.82 471.598 516.031 502.054C513.341 509.831 513.084 510.947 515.052 518.859C514.304 520.911 513.544 522.959 512.773 525.003L512.498 524.866L512.341 525.107C511.751 523.725 512.161 523.439 511.133 522.279L510.667 521.815C509.088 523.929 508.133 526.41 506.803 528.685C495.139 548.636 472.842 557.777 453.168 567.762C450.872 568.927 441.609 575.465 440.411 575.657L440.34 574.82C445.067 571.766 452.271 566.931 457.156 564.473C476.904 554.534 496.872 545.233 507.728 524.575C511.718 516.983 512.423 511.35 509.786 503.169C498.846 477.336 477.046 470.915 454.524 458.089C450.693 455.907 443.664 451.481 440.582 448.522L440.574 448L440.494 445.755Z"></path><defs><linearGradient id="gradient_9" gradientUnits="userSpaceOnUse" x1="474.56049" y1="473.86926" x2="479.51489" y2="466.64868"><stop offset="0" stop-color="#AC5326"></stop><stop offset="1" stop-color="#D56F38"></stop></linearGradient></defs><path fill="url(#gradient_9)" transform="scale(0.946408 0.946408)" d="M440.494 445.755C445.368 448.043 449.745 451.45 454.569 453.897C474.991 464.26 504.787 475.458 510.893 500.122L510.73 501.981C509.034 498.666 508.215 496.479 506.14 493.26C494.794 475.652 475.768 467.821 457.88 458.616C452.236 455.711 445.215 450.174 440.574 448L440.494 445.755Z"></path><path fill="#CE6A37" transform="scale(0.946408 0.946408)" d="M519.838 487.926C535.821 468.77 551.286 463.955 572.772 453.006C576.261 451.227 581.493 446.5 584.952 445.979L585.065 447.137C566.733 461.563 534.975 471.464 521.707 489.573L519.838 487.926Z"></path><path fill="#964D26" transform="scale(0.946408 0.946408)" d="M519.838 487.926L521.707 489.573C519.895 492.289 516.135 499.711 514.48 500.356L514.502 499.349C515.961 493.972 516.954 492.621 519.838 487.926Z"></path><path fill="#CE6A37" transform="scale(0.946408 0.946408)" d="M440.387 229.163C488.595 229.568 536.947 228.75 585.17 229.284L585.265 280.123C585.348 298.71 585.637 318.324 585.043 336.882C579.873 323.946 578.106 315.445 569.157 303.416C552.246 280.685 519.158 257.733 512.78 228.746C507.007 255.32 481.722 273.959 464.67 292.979C455.884 302.779 441.06 327.657 440.613 341.246C440.056 331.87 440.449 316.093 440.404 306.372L440.387 229.163Z"></path><path fill="#CE6A37" transform="scale(0.946408 0.946408)" d="M585.178 370.042C580.231 377.267 575.571 383.36 568.84 389.164C551.38 404.222 523.782 419.832 514.241 441.833L513.648 442.018C512.784 437.585 515.852 427.527 518.44 423.757C530.565 406.099 549.798 394.154 565.953 380.526C573.078 374.516 579.123 367.668 585.065 360.538C585.141 363.705 585.179 366.874 585.178 370.042Z"></path><path fill="#CE6A37" transform="scale(0.946408 0.946408)" d="M440.55 359.999C443.291 363.534 446.023 367.111 448.958 370.492C466.704 390.938 496.396 403.532 509.238 427.793C510.425 430.756 513.669 443.603 511.364 445.633C510.224 443.469 510.685 440.682 509.818 439.096C499.107 419.495 478.131 406.754 461.355 393.02C456.502 389.058 451.964 384.726 447.781 380.061C443.466 375.23 443.608 373.552 440.916 369.043L440.563 368.464C440.4 366.254 440.533 362.349 440.55 359.999Z"></path><path fill="#CE6A37" transform="scale(0.946408 0.946408)" d="M440.517 400.382C464.313 419.613 506.049 432.459 511.185 465.883L509.451 462.709L508.881 463.588C496.168 442.249 480.697 434.778 459.983 422.369C453.381 418.414 447.014 414.007 440.499 410.228L440.372 408.252C440.535 406.179 440.486 402.565 440.517 400.382Z"></path><path fill="#2D120A" transform="scale(0.946408 0.946408)" d="M440.372 408.252C465.933 429.479 489.703 430.388 509.451 462.709L508.881 463.588C496.168 442.249 480.697 434.778 459.983 422.369C453.381 418.414 447.014 414.007 440.499 410.228L440.372 408.252Z"></path><path fill="#CE6A37" transform="scale(0.946408 0.946408)" d="M585.164 343.125C585.591 345.468 585.308 348.503 585.204 350.945L585.092 353.162C578.535 359.549 574.289 366.178 566.645 373.202C549.129 389.297 525.314 402.115 515.059 424.031L514.286 423.419L513.864 424.088L513.567 423.827C515.827 405.04 545.887 383.837 558.834 370.968C567.7 362.157 577.47 353.321 585.164 343.125Z"></path><path fill="#2D120A" transform="scale(0.946408 0.946408)" d="M585.204 350.945L585.092 353.162C578.535 359.549 574.289 366.178 566.645 373.202C549.129 389.297 525.314 402.115 515.059 424.031L514.286 423.419C526.365 399.267 547.507 389.507 566.688 371.631C573.851 364.954 579.029 358.419 585.204 350.945Z"></path><path fill="#CE6A37" transform="scale(0.946408 0.946408)" d="M585.094 409.887C585.384 412.796 585.326 414.559 585.243 417.432C565.452 433.972 536.727 441.084 520.441 462.217C518.57 464.646 517.191 467.652 515.224 469.849C514.658 468.995 514.686 467.56 514.949 466.713C521.897 444.309 549.72 432.508 568.063 421.159C574.954 416.896 579.047 414.168 585.094 409.887Z"></path><path fill="#CE6A37" transform="scale(0.946408 0.946408)" d="M440.499 410.228C447.014 414.007 453.381 418.414 459.983 422.369C480.697 434.778 496.168 442.249 508.881 463.588C510.691 467.66 511.275 471.033 511.977 475.377C494.905 440.514 467.28 438.978 440.452 417.586L440.499 410.228Z"></path><path fill="#CE6A37" transform="scale(0.946408 0.946408)" d="M585.209 400.4C585.399 404.054 585.433 405.775 585.117 409.4L583.88 409.425C563.772 422.94 540.666 433.616 523.151 450.327C520.262 453.082 516.879 459.742 514.9 463.414C515.119 454.03 518.199 450.709 524.187 443.57C536.026 429.455 552.438 421.757 567.853 412.363C573.312 409.037 580.765 404.98 585.209 400.4Z"></path><path fill="#CE6A37" transform="scale(0.946408 0.946408)" d="M584.987 428.599C585.004 430.359 584.925 433.774 585.216 435.359C565.401 450.874 540.129 455.631 523.306 475.206C519.554 479.572 516.496 484.885 513.566 489.852C519.24 459.156 548.022 450.444 572.202 436.636C576.644 434.1 580.756 431.451 584.987 428.599Z"></path><path fill="#CE6A37" transform="scale(0.946408 0.946408)" d="M440.518 428.431C463.606 443.71 497.229 454.392 509.81 480.858C510.612 482.544 511.634 487.156 512.099 489.141C509.178 484.95 506.285 480.26 503.084 476.367C489.89 460.327 471.24 453.686 453.515 444C448.553 441.289 444.929 438.665 440.417 436.077L440.518 428.431Z"></path><path fill="#CE6A37" transform="scale(0.946408 0.946408)" d="M440.486 419.012C465.955 437.814 505.572 448.21 512.038 482.687C495.277 450.327 468.034 446.176 440.307 426.63L440.486 419.012Z"></path><path fill="#CE6A37" transform="scale(0.946408 0.946408)" d="M514.208 481.643C515.227 474.886 513.988 473.168 518.397 466.709C534.284 443.441 563.528 435.952 585.086 418.998L585.227 426.726C579.136 431.683 573.077 434.773 566.19 438.479C551.11 446.595 532.718 455.078 521.736 468.567C518.651 472.356 516.342 477.283 514.208 481.643Z"></path><path fill="#CE6A37" transform="scale(0.946408 0.946408)" d="M440.55 352.515C446.951 360.198 451.794 366.47 459.145 373.452C474.453 387.993 503.999 404.939 510.864 425.543L509.68 426.398L510.628 428.501L509.238 427.793C496.396 403.532 466.704 390.938 448.958 370.492C446.023 367.111 443.291 363.534 440.55 359.999L440.54 357.494L440.55 352.515Z"></path><path fill="#2D120A" transform="scale(0.946408 0.946408)" d="M440.54 357.494C459.959 388.32 490.402 395.258 509.68 426.398L510.628 428.501L509.238 427.793C496.396 403.532 466.704 390.938 448.958 370.492C446.023 367.111 443.291 363.534 440.55 359.999L440.54 357.494Z"></path><path fill="#CE6A37" transform="scale(0.946408 0.946408)" d="M440.452 343.516C443.355 345.677 448.003 351.525 450.569 354.464C454.538 359.053 458.68 363.49 462.987 367.765C475.462 380.06 490.594 390.499 501.943 404.114C502.717 405.042 505.589 408.179 506.076 409.067L505.939 410.679L506.675 411.265C508.35 416.332 512.188 418.578 511.683 423.854C511.318 422.56 511.293 422.18 510.6 421.046C497.269 399.23 476.171 387.948 458.079 370.888C451.117 364.322 445.888 357.804 440.477 349.846L440.452 343.516Z"></path><path fill="#CE6A37" transform="scale(0.946408 0.946408)" d="M513.962 496.46C514.095 495.018 514.27 493.58 514.488 492.148C514.986 489.075 517.567 484.644 519.345 482.037C535.381 458.529 562.337 453.232 585.13 436.914C585.172 439.082 585.249 441.28 585.182 443.446C560.125 463.421 531.974 462.471 513.962 496.46Z"></path><path fill="#CE6A37" transform="scale(0.946408 0.946408)" d="M440.545 392.944C464.829 409.299 506.58 427.475 511.623 459.876C509.477 455.513 506.198 448.194 503.075 444.46C488.134 426.593 465.727 416.785 446.827 403.894C444.702 402.444 442.487 400.451 440.454 399.172L440.545 392.944Z"></path><path fill="#CE6A37" transform="scale(0.946408 0.946408)" d="M440.523 437.59C463.338 451.765 507.338 466.406 511.516 496.046C497.881 471.475 482.219 466.829 458.153 454.521C452.569 451.665 445.01 447.925 440.352 443.713C440.499 442.031 440.478 439.356 440.523 437.59Z"></path><path fill="#CE6A37" transform="scale(0.946408 0.946408)" d="M585.116 392.898C585.325 394.535 585.54 398.74 585.209 400.4L584.174 400.233C578.927 404.255 572.305 408.135 566.651 411.555C541.968 426.489 529.719 431.482 514.007 456.199C516.151 446.795 518.791 444.086 524.816 436.613C541.213 416.273 564.412 407.541 585.116 392.898Z"></path><path fill="#CE6A37" transform="scale(0.946408 0.946408)" d="M585.092 353.162L585.14 358.415C578.928 366.347 573.911 372.103 566.266 378.877C546.608 396.294 521.618 408.839 512.677 434.669L515.059 424.031C525.314 402.115 549.129 389.297 566.645 373.202C574.289 366.178 578.535 359.549 585.092 353.162Z"></path><defs><linearGradient id="gradient_10" gradientUnits="userSpaceOnUse" x1="552.88281" y1="421.38815" x2="546.26837" y2="411.34149"><stop offset="0" stop-color="#AA4E26"></stop><stop offset="1" stop-color="#DB6E34"></stop></linearGradient></defs><path fill="url(#gradient_10)" transform="scale(0.946408 0.946408)" d="M584.896 384.848L585.312 384.849C585.31 387.221 585.404 390.114 585.131 392.428C584.815 391.939 585.052 392.162 584.288 391.938C577.303 397.575 568.79 402.044 561.004 406.591C545.735 415.508 533.309 424.278 522.175 438.227C519.261 441.878 517.473 444.743 514.814 448.253C514.774 448 514.735 447.747 514.695 447.495C522.937 427.774 546.905 410.558 563.611 400.02C574.869 392.919 578.464 390.589 584.896 384.848Z"></path><path fill="#CE6A37" transform="scale(0.946408 0.946408)" d="M440.538 385.314C459.696 398.576 490.333 417.028 504.389 435.95L502.884 437.083C491.959 425.513 479.546 415.447 465.97 407.147C457.69 402.071 448.048 397.052 440.388 391.235L440.538 385.314Z"></path><defs><linearGradient id="gradient_11" gradientUnits="userSpaceOnUse" x1="478.24951" y1="401.03549" x2="465.40692" y2="411.75122"><stop offset="0" stop-color="#B64A1B"></stop><stop offset="1" stop-color="#CA753C"></stop></linearGradient></defs><path fill="url(#gradient_11)" transform="scale(0.946408 0.946408)" d="M440.529 377.573C447.828 383.507 455.181 389.607 462.514 395.48C474.707 405.246 495.85 420.128 504.495 432.751L503.354 433.213C491.823 418.255 466.822 401.636 451.113 391.274C448.917 389.825 442.461 384.714 440.495 384.098C440.436 382.033 440.513 379.665 440.529 377.573Z"></path><path fill="#CE6A37" transform="scale(0.946408 0.946408)" d="M552.068 403.891C566.214 394.796 572.734 387.091 585.09 377.705C585.3 380.462 585.348 382.082 585.312 384.849L584.896 384.848L584.172 384.262C580.973 386.845 579.839 388.09 576.26 390.574C569.218 395.461 559.986 400.358 553.355 405.493L552.068 403.891Z"></path><path fill="#964D26" transform="scale(0.946408 0.946408)" d="M552.068 403.891L553.355 405.493C549.804 408.84 544.057 411.79 540.098 414.986C530.03 423.115 523.565 431.321 516.249 441.607L515.997 441.46C521.067 427.557 540.084 412.139 552.068 403.891Z"></path><path fill="#B86230" transform="scale(0.946408 0.946408)" d="M440.539 372.183C443.381 375.868 446.264 379.521 449.189 383.141C445.741 380.654 443.663 378.917 440.48 376.074L440.539 372.183Z"></path><path fill="#B86230" transform="scale(0.946408 0.946408)" d="M506.076 409.067C509.198 411.753 510.182 413.267 512.022 416.954L511.71 417.56L512.141 417.373L511.862 417.663C509.628 415.979 508.659 413.406 506.675 411.265L505.939 410.679L506.076 409.067Z"></path><path fill="#964D26" transform="scale(0.946408 0.946408)" d="M504.389 435.95C505.134 437.298 509.051 443.943 509.281 444.848C507.581 442.857 504.205 439.097 502.884 437.083L504.389 435.95Z"></path><path fill="#964D26" transform="scale(0.946408 0.946408)" d="M504.495 432.751C506.673 435.761 508.063 437.725 509.127 441.38C507.105 439.679 505.634 435.853 503.354 433.213L504.495 432.751Z"></path><path fill="#964D26" transform="scale(0.946408 0.946408)" d="M510.864 425.543C511.708 427.809 512.253 428.196 511.915 430.393L511.62 430.634L510.628 428.501L509.68 426.398L510.864 425.543Z"></path><path fill="#CE6A37" transform="scale(0.946408 0.946408)" d="M448.628 319.676C449.703 320.397 453.284 324.251 454.503 325.462L470.196 340.994C480.085 350.599 491.366 359.827 500.594 369.992C505.045 374.821 509 380.085 512.399 385.704C512.49 388.232 512.553 389.654 512.303 392.195L511.597 392.236C503.229 379.729 490.022 367.9 479.079 357.385C467.992 346.781 457.09 335.984 446.38 324.999L448.628 319.676Z"></path><path fill="#CE6A37" transform="scale(0.946408 0.946408)" d="M576.865 319.907C578.194 321.232 578.448 322.9 578.847 324.665C567.406 338.195 552.571 350.907 540.232 363.788C531.54 372.863 522.16 380.703 514.915 391.222L514.408 391.773L513.789 391.518C513.362 388.911 513.612 386.602 513.745 383.964C522.944 371.698 533.887 362.342 544.745 351.892C555.537 341.316 566.243 330.654 576.865 319.907Z"></path><path fill="#CE6A37" transform="scale(0.946408 0.946408)" d="M445.995 325.931C457.093 339.653 510.344 384.417 512.198 396.688C512.399 398.018 512.738 400.616 511.948 401.631C506.408 392.632 497.626 384.459 490.186 377.007C475.199 361.996 457.403 347.448 444.661 330.525C444.857 329.485 445.656 327.055 445.995 325.931Z"></path><path fill="#CE6A37" transform="scale(0.946408 0.946408)" d="M579.287 325.89C579.995 326.711 580.54 327.925 580.678 329.005C581.322 334.024 533.809 378.117 527.066 385.145C522.518 389.884 518.47 394.932 514.606 400.233L513.99 400.366C513.424 398.728 513.778 396.151 513.887 394.331C521.262 382.95 530.256 375.689 539.35 366.311C552.033 353.232 567.477 339.413 579.287 325.89Z"></path><path fill="#CE6A37" transform="scale(0.946408 0.946408)" d="M441.963 337.215C442.917 337.662 455.778 351.951 457.851 354.141C470.862 367.884 485.094 379.803 498.119 393.495C501.993 397.568 509.241 405.534 511.814 410.662C512.072 411.177 512.038 413.382 512.017 414.108C505.626 406.283 497.191 396.779 489.67 390.107C472.804 375.144 455.67 360.952 442.075 342.748C440.867 341.13 441.557 339.023 441.963 337.215Z"></path><path fill="#CE6A37" transform="scale(0.946408 0.946408)" d="M573.942 314.83C575.353 315.763 575.795 316.99 576.615 318.505C557.64 339.188 532.826 359.374 515.38 380.282L514.331 381.298C513.831 380.398 513.888 380.354 513.93 379.365C514.314 370.479 565.381 322.967 573.942 314.83Z"></path><path fill="#CE6A37" transform="scale(0.946408 0.946408)" d="M516.639 406.395C523.918 395.317 536.859 383.593 546.759 374.429C555.476 366.51 563.957 358.336 572.192 349.917C573.8 348.246 581.45 339.063 582.425 338.703C584.136 339.389 583.401 338.883 584.631 340.389C584.56 348.274 534.071 391.407 527.205 398.516C524.937 400.866 521.888 404.534 519.72 407.35C517.573 407.186 518.085 407.535 516.639 406.395Z"></path><path fill="#CE6A37" transform="scale(0.946408 0.946408)" d="M581.256 331.372C581.835 332.064 583.16 335.08 582.675 335.719C566.602 356.904 544.675 373.32 526.465 392.638C521.556 397.845 518.241 402.196 514.391 407.869L513.813 408.334L513.432 407.816C513.461 406.178 513.378 403.697 514.332 402.362C533.273 375.861 561.087 357.061 581.256 331.372Z"></path><path fill="#CE6A37" transform="scale(0.946408 0.946408)" d="M451.304 314.75C456.22 318.097 467.5 329.665 472.135 334.441C479.44 341.967 516.077 373.611 512.43 383.003C509.095 378.48 504.363 371.973 500.559 368.026C488.723 355.747 475.11 345.092 463.298 332.686C459.068 328.243 453.292 323.801 449.838 318.846C449.762 316.831 450.189 316.846 451.304 314.75Z"></path><path fill="#CE6A37" transform="scale(0.946408 0.946408)" d="M444.081 331.806C446.203 334.09 448.22 336.472 450.254 338.869C468.971 360.929 493.544 378.172 510.616 401.597C512.194 403.763 512.389 405.698 511.774 408.181C492.828 381.512 463.043 362.538 443.323 336.15C442.589 335.167 443.673 332.894 444.081 331.806Z"></path><path fill="#CE6A37" transform="scale(0.946408 0.946408)" d="M563.152 298.396C564.553 299.101 565.321 300.375 566.314 301.642C551.859 317.698 535.346 332.17 520.769 348.145C519.161 349.908 517.407 351.539 515.633 353.134C515.357 353.423 514.872 353.699 514.515 353.936L514.163 353.131C514.944 350.938 523.64 338.379 525.486 336.608C538.33 324.291 550.406 310.696 563.152 298.396Z"></path><path fill="#CE6A37" transform="scale(0.946408 0.946408)" d="M461.335 298.671C461.74 298.901 462.599 299.365 462.988 299.755C479.588 316.386 499.043 333.311 511.848 353.078C512.394 353.92 512.483 356.327 512.513 357.279L511.967 357.785C498.471 337.086 475.338 321.407 459.987 302.029C459.378 301.26 460.857 299.471 461.335 298.671Z"></path><path fill="#CE6A37" transform="scale(0.946408 0.946408)" d="M458.588 302.747C459.841 303.6 470.216 314.523 471.417 315.931C479.062 324.887 512.402 352.406 511.986 363.263L511.489 363.706C506.127 354.839 494.313 343.568 486.836 336.174L467.856 317.149C464.685 313.964 460.265 309.673 457.484 306.023C456.853 305.194 457.948 303.912 458.588 302.747Z"></path><path fill="#CE6A37" transform="scale(0.946408 0.946408)" d="M480.881 277.832C486.757 281.801 501.974 298.503 506.6 304.515C510.776 309.941 512.916 313.881 511.864 320.779L511.364 320.693C506.119 309.116 487.293 290.409 477.818 280.893L480.881 277.832Z"></path><path fill="#CE6A37" transform="scale(0.946408 0.946408)" d="M517.617 352.778L553.246 316.986C557.236 312.954 561.032 308.82 564.803 304.585C565.493 303.81 566.822 303.461 567.825 303.518L568.424 304.221C567.389 309.697 526.74 347.559 520.168 355.021L518.334 354.716L518.15 354.417L517.617 352.778Z"></path><path fill="#CE6A37" transform="scale(0.946408 0.946408)" d="M453.622 310.677C456.43 312.379 469.129 325.419 472.064 328.647C481.35 338.861 507.841 361.083 512.233 373.2L511.831 374.035C504.409 363.752 453.095 315.1 452.343 312.925L453.622 310.677Z"></path><path fill="#CE6A37" transform="scale(0.946408 0.946408)" d="M455.49 306.678C458.311 307.417 496.399 348.091 501.811 353.081C505.987 356.932 511.419 364.479 512.523 370.36C502.649 355.226 480.948 336.707 468.2 323.257C464.312 319.155 459.183 314.722 455.527 310.248C454.64 309.162 455.186 308.115 455.49 306.678Z"></path><path fill="#CE6A37" transform="scale(0.946408 0.946408)" d="M476.527 281.791C482.002 284.431 516.225 321.907 511.508 327.418C500.216 312.436 487.938 298.223 474.756 284.873C474.827 283.427 475.424 283.204 476.527 281.791Z"></path><path fill="#CE6A37" transform="scale(0.946408 0.946408)" d="M571.952 310.246C572.769 311.395 573.644 312.24 573.564 313.563C569.793 317.591 565.041 321.681 561.008 325.627C552.414 334.088 543.868 342.598 535.37 351.155C531.241 355.307 526.332 359.88 522.644 364.341L521.099 361.995C525.25 356.421 529.477 352.316 534.428 347.513C547.096 335.227 559.887 323.128 571.952 310.246Z"></path><path fill="#CE6A37" transform="scale(0.946408 0.946408)" d="M544.449 278.366C544.953 278.71 547.239 280.759 547.819 281.26C534.782 294.154 523.939 304.66 515.14 320.918L513.852 322.738C508.677 312.818 537.236 285.779 544.449 278.366Z"></path><path fill="#CE6A37" transform="scale(0.946408 0.946408)" d="M519.453 357.794C521.959 354.204 525.198 350.924 528.329 347.864C538.464 337.96 548.653 328.116 558.687 318.107C560.805 315.994 567.715 307.608 569.459 307.08L570.57 307.414C570.899 308.047 571.251 308.357 570.915 308.825C560.395 323.491 531.27 346.651 521.152 359.941L519.453 357.794Z"></path><path fill="#CE6A37" transform="scale(0.946408 0.946408)" d="M464.311 294.789C466.007 296.093 473.763 304.141 475.064 305.646C480.528 311.963 514.63 343.352 512.399 350.99C505.67 342.168 498.421 333.756 490.689 325.799C487.154 322.135 463.301 299.016 462.788 297.21L464.311 294.789Z"></path><path fill="#CE6A37" transform="scale(0.946408 0.946408)" d="M560.367 294.828C562.689 296.858 562.536 296.731 561.059 298.884C555.937 306.349 521.019 337.27 519.357 341.859L520.486 341.751L520.842 342.059C519.949 343.652 516.308 347.584 514.893 349.184L514.43 349.645L513.845 349.452C513.648 346.504 515.767 345.3 516.837 343.123C521.004 334.643 527.825 328.853 534.353 321.996L560.367 294.828Z"></path><path fill="#CE6A37" transform="scale(0.946408 0.946408)" d="M548.435 282.338C550.017 283.62 549.903 283.158 550.554 284.817C549.333 286.781 543.069 292.984 541.183 294.877C530.747 305.352 522.899 315.522 514.628 327.783L513.799 328.208L513.538 327.311C515.63 314.808 538.873 291.522 548.435 282.338Z"></path><path fill="#CE6A37" transform="scale(0.946408 0.946408)" d="M473.125 285.201C480.833 290.764 506.36 321.067 511.937 330.587C512.292 331.193 512.336 332.619 511.868 333.516C509.212 329.891 505.828 326.61 502.927 323.155C498.755 318.188 494.944 313.011 490.61 308.176C484.593 301.463 477.609 294.95 471.787 288.135C471.667 286.615 471.968 286.811 473.125 285.201Z"></path><path fill="#CE6A37" transform="scale(0.946408 0.946408)" d="M470.191 288.265C472.44 290.105 475.383 293.74 477.602 295.922C489.598 307.735 499.888 320.97 510.659 333.863C511.454 334.815 512.978 338.435 512.302 339.511C500.567 323.272 480.901 306.401 468.813 291.32C468.678 289.617 468.81 290.076 470.191 288.265Z"></path><defs><linearGradient id="gradient_12" gradientUnits="userSpaceOnUse" x1="539.64014" y1="322.63626" x2="532.40167" y2="313.91409"><stop offset="0" stop-color="#B35F32"></stop><stop offset="1" stop-color="#D87036"></stop></linearGradient></defs><path fill="url(#gradient_12)" transform="scale(0.946408 0.946408)" d="M557.502 291.799C559.155 292.868 558.646 292.168 559.331 293.757C558.56 295.642 542.548 312.042 540.082 314.459C529.618 324.719 522.701 332.817 514.154 344.74C513.943 345.149 514.115 344.876 513.444 345.4C512.158 339.075 527.644 323.374 532.08 318.643C540.48 309.686 549.043 300.697 557.502 291.799Z"></path><path fill="#CE6A37" transform="scale(0.946408 0.946408)" d="M540.338 274.793C541.791 275.241 542.701 275.993 543.356 277.342C542.632 278.931 529.308 292.198 526.766 295.226C521.97 300.941 519.339 304.307 515.143 310.785C514.703 311.713 515.031 311.295 514.078 311.97C511.133 301.893 532.979 281.511 540.338 274.793Z"></path><path fill="#CE6A37" transform="scale(0.946408 0.946408)" d="M554.42 288.351C556.055 289.809 556.017 289.314 556.388 291.05C555.347 292.698 543.5 305.152 541.648 307.044C531.339 317.575 523.813 326.203 514.724 337.714L514.437 338.196L513.801 338.226C513.765 338.049 513.703 337.876 513.693 337.696C513.308 330.45 547.67 296.466 554.42 288.351Z"></path><path fill="#CE6A37" transform="scale(0.946408 0.946408)" d="M484.864 273.832C492.298 279.45 501.841 290.882 508.014 297.97C510.722 301.078 512.836 306.578 512.393 310.78L511.993 310.637C503.784 296.619 492.615 288.534 482.542 277.072C482.9 275.313 483.344 275.392 484.864 273.832Z"></path><path fill="#CE6A37" transform="scale(0.946408 0.946408)" d="M466.443 291.62C470.431 292.754 505.008 332.29 509.619 337.899C510.864 339.413 512.471 342.165 512.01 344.322C499.012 326.381 479.909 310.89 465.72 293.952C465.432 293.608 466.258 292.056 466.443 291.62Z"></path><path fill="#CE6A37" transform="scale(0.946408 0.946408)" d="M551.578 285.516C552.673 286.258 552.605 286.232 553.38 287.32C552.641 289.48 542.047 300.457 539.419 303.097C529.463 313.091 522.855 321.826 514.479 333.137L514.057 333.322C509.702 328.885 546.286 291.096 551.578 285.516Z"></path><path fill="#CE6A37" transform="scale(0.946408 0.946408)" d="M537.374 271.829C538.866 272.128 538.3 271.926 539.578 272.933C539.746 274.416 533.899 279.516 532.473 280.952C526.221 287.317 520.384 294.077 514.997 301.188L514.526 302.031L514.035 301.941C513.031 295.92 532.394 276.677 537.374 271.829Z"></path><path fill="#CE6A37" transform="scale(0.946408 0.946408)" d="M487.407 270.712C490.754 272.178 507.356 290.754 509.851 294.926C510.464 295.95 511.56 298.849 512.388 300.391L512.598 300.777L512.03 301.262C504.13 291.237 495.703 282.1 486.392 273.406C486.33 273.051 486.268 272.695 486.206 272.34L487.407 270.712Z"></path><path fill="#B86230" transform="scale(0.946408 0.946408)" d="M490.291 267.738C495.388 270.976 509.193 287.894 512.221 294.231L511.847 295.062C508.16 291.144 504.587 286.217 500.538 281.986C497.371 278.677 492.141 273.625 489.352 270.066C489.03 269.654 489.924 268.414 490.291 267.738Z"></path><path fill="#CE6A37" transform="scale(0.946408 0.946408)" d="M493.368 264.854C497.229 267.891 513.636 286.168 511.98 290.491C509.618 287.349 492.401 267.884 492.139 266.534L493.368 264.854Z"></path><path fill="#B86230" transform="scale(0.946408 0.946408)" d="M535.301 268.806C536.621 270.028 536.274 269.315 536.606 270.884C532.575 275.029 529.079 278.683 525.28 283.048C521.742 287.112 516.745 294.112 513.061 297.543L512.743 297.546C514.221 295.42 514.301 293.375 515.93 291.238C521.946 283.351 527.902 275.435 535.301 268.806Z"></path><path fill="#CE6A37" transform="scale(0.946408 0.946408)" d="M532.575 265.513C533.161 266.052 533.633 266.637 534.163 267.238C534.097 268.874 526.511 276.272 524.974 278.152C521.368 282.561 517.817 286.912 514.417 291.494L513.8 291.83C513.012 286.645 528.563 269.847 532.575 265.513Z"></path><path fill="#CE6A37" transform="scale(0.946408 0.946408)" d="M496.155 261.28C499.352 264.056 514.424 281.695 512.323 285.558C506.736 278.341 500.936 271.29 494.931 264.416C494.688 262.781 494.919 263.133 496.155 261.28Z"></path><path fill="#B86230" transform="scale(0.946408 0.946408)" d="M523.576 254.261L524.438 255.114C524.795 256.311 524.512 256.731 524.12 257.887C525.404 257.483 525.472 257.29 526.693 257.715L526.729 258.769C525.468 260.858 516.399 271.595 514.42 272.568C514.373 271.024 515.655 269.361 516.515 267.946C517.674 266.502 518.661 265.19 519.744 263.687L519.646 263.214C516.521 266.079 515.104 268.134 512.545 271.56C515.875 263.441 518.186 261.25 523.576 254.261Z"></path><path fill="#B86230" transform="scale(0.946408 0.946408)" d="M497.774 258.666C501.508 260.088 513.006 276.433 512.82 280.077C508.401 275.381 501.93 266.244 497.707 260.948C497.054 260.128 497.404 260.016 497.774 258.666Z"></path><path fill="#B86230" transform="scale(0.946408 0.946408)" d="M527.482 259.785C528.159 260.11 528.128 260.232 528.688 260.827C528.319 263.397 517.614 274.797 514.926 278.125C514.645 278.35 514.857 278.22 514.192 278.247C514.418 273.214 524.078 263.463 527.482 259.785Z"></path><path fill="#CE6A37" transform="scale(0.946408 0.946408)" d="M518.914 274.878C521.728 271.347 526.206 265.16 530.29 263.499L530.92 263.834C530.242 267.563 525.631 271.422 523.22 274.456C521.451 275.17 520.732 275.402 518.914 274.878Z"></path><path fill="#B86230" transform="scale(0.946408 0.946408)" d="M499.786 255.811C503.199 256.955 512.358 271.834 512.998 275.714C509.647 271.224 503.01 262.522 499.649 257.469C499.695 256.916 499.74 256.364 499.786 255.811Z"></path><path fill="#B86230" transform="scale(0.946408 0.946408)" d="M523.22 274.456C520.343 277.862 517.595 282.358 514.45 286.14L514.143 285.658C514.304 280.82 515.612 278.365 518.914 274.878C520.732 275.402 521.451 275.17 523.22 274.456Z"></path><path fill="#B86230" transform="scale(0.946408 0.946408)" d="M501.859 253.308C504.866 254.599 511.823 266.679 512.496 270.213C508.631 266.02 504.956 259.806 501.79 254.982C501.813 254.424 501.836 253.866 501.859 253.308Z"></path><path fill="#CE6A37" transform="scale(0.946408 0.946408)" d="M521.099 361.995L522.644 364.341C520.467 366.512 516.543 372.364 514.187 373.707C513.854 370.38 518.813 365.025 521.099 361.995Z"></path><path fill="#B86230" transform="scale(0.946408 0.946408)" d="M516.639 406.395C518.085 407.535 517.573 407.186 519.72 407.35C517.977 410.97 515.921 414.681 513.458 417.858L513.262 417.399L513.159 417.9L513.678 417.56L513.378 416.979C514.056 415.03 515.17 412.707 516.022 410.78C514.873 411.822 514.899 412.077 513.517 412.413C513.353 410.076 515.137 408.204 516.639 406.395Z"></path><path fill="#B86230" transform="scale(0.946408 0.946408)" d="M521.76 251.74L522.689 252.493C522.758 255.628 517.148 261.119 514.89 263.512L514.348 263.731C514.82 259.676 519.111 255.168 521.76 251.74Z"></path><path fill="#B86230" transform="scale(0.946408 0.946408)" d="M504.024 251.724L504.739 251.338C507.01 254.672 511.395 260.905 512.122 264.722C510.364 263.892 503.815 253.628 504.024 251.724Z"></path><path fill="#B86230" transform="scale(0.946408 0.946408)" d="M521.152 359.941C520.148 361.664 516.161 367.694 514.352 368.08C514.42 365.744 518.048 359.907 519.453 357.794L521.152 359.941Z"></path><path fill="#B86230" transform="scale(0.946408 0.946408)" d="M520.073 249.343L520.863 250.008C520.87 252.886 516.499 256.604 514.813 259.225L514.372 259.923L514.227 259.959L513.78 259.288C513.915 256.841 518.444 251.45 520.073 249.343Z"></path><path fill="#B86230" transform="scale(0.946408 0.946408)" d="M505.441 249.633L506.075 249.553C508.398 252.511 511.863 256.826 511.973 260.516C510.566 258.57 505.288 251.529 505.441 249.633Z"></path><path fill="#B86230" transform="scale(0.946408 0.946408)" d="M513.192 366.267C514.8 360.629 515.42 359.722 518.334 354.716L520.168 355.021C517.897 358.362 515.36 362.762 513.192 366.267Z"></path><path fill="#CE6A37" transform="scale(0.946408 0.946408)" d="M506.368 246.425C509.129 248.016 511.757 252.674 512.079 255.861C509.955 253.626 506.406 249.515 506.368 246.425Z"></path><path fill="#CE6A37" transform="scale(0.946408 0.946408)" d="M509.167 243.203L509.86 243.496C510.682 245.25 511.537 248.621 511.914 250.534L511.329 250.665C509.669 248.798 507.87 247.592 508.127 245.044L508.959 244.688L509.167 243.203Z"></path><path fill="#B86230" transform="scale(0.946408 0.946408)" d="M518.818 247.345L519.35 248.04C518.254 250.46 515.86 253.374 514.214 255.577C513.778 255.119 513.933 255.127 513.749 254.323C514.94 251.631 516.907 249.582 518.818 247.345Z"></path><path fill="#B86230" transform="scale(0.946408 0.946408)" d="M517.617 352.778L518.15 354.417C517.606 355.541 516.004 357.564 514.724 357.873L514.395 357.008C514.969 354.992 516.039 354.309 517.617 352.778Z"></path><path fill="#B86230" transform="scale(0.946408 0.946408)" d="M517.843 244.912L518.389 245.993C517.553 247.95 515.943 249.311 514.429 250.873L514.015 250.266C514.968 248.077 516.304 246.745 517.843 244.912Z"></path><path fill="#562817" transform="scale(0.946408 0.946408)" d="M511.243 236.186L512.039 236.522L512.205 237.501C512.561 239.736 512.686 239.734 514.091 241.682C512.619 241.442 512.435 241.018 511.338 239.966C510.562 237.744 510.695 238.647 511.243 236.186Z"></path></svg>
